:SAMPLES-PER-SECOND 30
:FULLY-SPECIFIED
:DEGREES
473
root  1.05161 35.6104 23.7339 -145.82 51.806 -146.197
LeftUpLeg  -8.03418 -14.4307 22.2134
LeftLeg  16.099 -7.98964 -1.75478
LeftFoot  -2.23807 0.0116526 0.307661
LeftToes  -9.85149 1.85109e-006 5.31342e-008
Spine  4.09359 -11.0165 4.14928
Spine1  6.45443 -23.0324 8.87273
RightShoulder  0.00814872 -1.61232 14.3717
RightArm  -38.6989 -29.2429 31.4279
RightForeArm  53.2998 4.21117 0.718984
RightHand  2.96245 -17.0589 -19.1878
LeftShoulder1  0.119633 -6.37484 -2.40733
LeftArm  -8.24151 -10.8755 -30.8178
LeftForeArm  29.769 -48.1103 -11.355
LeftHand  0.0119056 -3.82958 -0.727382
HEad  -17.642 -64.7637 23.8847
RightUpLeg  -40.7156 2.59025 15.5324
RightLeg  72.2037 2.89294 7.11569
RightFoot  30.6553 -0.852168 3.48586
RightToes  -33.2987 -0.167284 -0.274227
474
root  1.44677 35.4382 24.406 -150.433 52.33 -150.935
LeftUpLeg  -8.47742 -13.5104 20.6359
LeftLeg  17.7862 -9.03212 -2.26095
LeftFoot  -2.1112 0.00646981 0.351118
LeftToes  -14.804 1.85109e-006 5.31342e-008
Spine  3.82678 -9.53248 3.20344
Spine1  6.49831 -19.7554 6.7712
RightShoulder  0.00626693 -1.28379 13.0068
RightArm  -45.3411 -21.8668 29.0554
RightForeArm  53.7998 4.93828 0.846281
RightHand  2.63834 -14.3081 -20.4137
LeftShoulder1  0.0817627 -4.39317 -3.65359
LeftArm  -8.84343 -5.30416 -28.3366
LeftForeArm  29.5349 -39.0937 -8.23651
LeftHand  0.0296323 -2.34906 -1.82055
HEad  -23.9505 -66.4378 30.258
RightUpLeg  -34.9494 6.69749 12.5804
RightLeg  69.9712 2.74429 6.05538
RightFoot  27.5271 -0.589946 2.78559
RightToes  -32.0989 -0.158638 -0.266286
475
root  1.70819 35.2755 25.1308 -152.943 54.4955 -154.57
LeftUpLeg  -8.69264 -8.66361 18.4226
LeftLeg  18.105 -7.7976 -2.00056
LeftFoot  -1.8286 0.00391344 0.24521
LeftToes  -16.7572 1.85109e-006 5.31342e-008
Spine  3.23823 -7.57214 2.48445
Spine1  5.89905 -15.5426 5.05659
RightShoulder  0.006923 -1.32468 12.8772
RightArm  -46.2862 -15.2905 27.8322
RightForeArm  47.7147 9.75343 1.71607
RightHand  2.05505 -11.6854 -19.5022
LeftShoulder1  0.0425553 -2.40962 -4.15025
LeftArm  -12.152 0.423411 -27.4963
LeftForeArm  35.6596 -31.0709 -6.08717
LeftHand  -0.00163655 -3.44813 -0.316202
HEad  -30.0341 -68.0029 36.4919
RightUpLeg  -31.7723 9.22118 9.19114
RightLeg  67.874 1.04364 2.01061
RightFoot  24.4113 -0.0791702 0.743528
RightToes  -29.2134 -0.138542 -0.246462
476
root  1.91993 35.157 25.9057 -155.267 56.7451 -158.554
LeftUpLeg  -8.6367 -5.17315 16.3902
LeftLeg  16.3404 -6.71639 -1.50661
LeftFoot  -0.547851 0.000323221 0.0675968
LeftToes  -18.4548 1.85109e-006 5.31342e-008
Spine  2.65531 -6.0245 1.95636
Spine1  4.98773 -12.2111 3.85451
RightShoulder  0.00847917 -1.1101 11.9606
RightArm  -44.499 -9.08883 29.0375
RightForeArm  42.1396 15.0782 2.70649
RightHand  2.04699 -11.4345 -19.854
LeftShoulder1  0.0189898 -1.15047 -4.12823
LeftArm  -19.8477 8.47892 -28.2345
LeftForeArm  38.3572 -23.9049 -4.46656
LeftHand  -0.0866576 -3.3735 2.57747
HEad  -34.2796 -68.9739 39.9397
RightUpLeg  -29.9448 8.51369 4.99432
RightLeg  65.122 -1.84219 -3.50044
RightFoot  20.6962 0.341102 -1.49029
RightToes  -27.9092 -0.129792 -0.237175
477
root  2.12109 35.0166 26.7048 -157.071 58.9678 -161.389
LeftUpLeg  -8.81429 -4.58721 15.5377
LeftLeg  15.9007 -5.6833 -1.23038
LeftFoot  0.400263 0.000128995 -0.0369393
LeftToes  -22.2262 1.85109e-006 5.31342e-008
Spine  2.39027 -5.01125 1.92141
Spine1  4.57754 -10.0442 3.63086
RightShoulder  0.01269 -0.0322081 10.3706
RightArm  -42.2333 -3.77946 32.3815
RightForeArm  39.0441 24.1869 4.52774
RightHand  2.07422 -11.0946 -20.7348
LeftShoulder1  0.00480787 -0.0147807 -4.02547
LeftArm  -30.7683 17.1881 -30.183
LeftForeArm  39.5292 -16.5826 -2.99464
LeftHand  -0.0809594 -1.90984 4.50071
HEad  -36.4219 -68.8203 40.2168
RightUpLeg  -28.1647 6.2237 0.723843
RightLeg  61.1032 -4.57302 -7.20112
RightFoot  17.4863 0.459795 -2.61139
RightToes  -22.2867 -0.0945697 -0.194949
